<svg width="962" height="39" viewBox="0 0 962 39" fill="none" xmlns="http://www.w3.org/2000/svg">
<path d="M7.33789 22.085L16.0205 6.82812H21.8477V31H16.0205V15.7598L7.33789 31H1.51074V6.82812H7.33789V22.085ZM45.04 26.5176V31H28.0566V26.5176H45.04ZM29.9824 26.5176V36.9268H24.5869L24.1885 26.5176H29.9824ZM49.0078 26.5176L48.3936 36.9434H43.1641V26.5176H49.0078ZM42.5 6.82812V11.3271H30.3643V6.82812H42.5ZM46.418 6.82812V31H40.624V6.82812H46.418ZM29.9824 6.82812H35.793L35.0791 16.7393C34.9574 18.4326 34.7637 19.9046 34.498 21.1553C34.2324 22.4059 33.917 23.485 33.5518 24.3926C33.1865 25.3001 32.7881 26.0804 32.3564 26.7334C31.9248 27.3864 31.471 27.9564 30.9951 28.4434C30.5303 28.9303 30.0654 29.373 29.6006 29.7715C29.1357 30.1699 28.6875 30.5794 28.2559 31H24.7197V26.5176H25.8818C26.2249 26.2741 26.568 25.9476 26.9111 25.5381C27.2653 25.1175 27.5973 24.5475 27.9072 23.8281C28.2171 23.1087 28.4883 22.1735 28.7207 21.0225C28.9531 19.8714 29.1302 18.4437 29.252 16.7393L29.9824 6.82812ZM67.6514 26.5176V31H54.7686V26.5176H67.6514ZM56.8438 6.82812V31H51.0166V6.82812H56.8438ZM65.9912 16.4238V20.7568H54.7686V16.4238H65.9912ZM67.7012 6.82812V11.3271H54.7686V6.82812H67.7012ZM53.0088 3.19238C53.0088 2.57259 53.2578 2.05241 53.7559 1.63184C54.2539 1.2002 54.8405 0.984375 55.5156 0.984375C56.2018 0.984375 56.7884 1.2002 57.2754 1.63184C57.7734 2.05241 58.0225 2.57259 58.0225 3.19238C58.0225 3.81217 57.7734 4.33789 57.2754 4.76953C56.7884 5.1901 56.2018 5.40039 55.5156 5.40039C54.8405 5.40039 54.2539 5.1901 53.7559 4.76953C53.2578 4.33789 53.0088 3.81217 53.0088 3.19238ZM61.625 3.19238C61.625 2.57259 61.874 2.05241 62.3721 1.63184C62.8701 1.2002 63.4567 0.984375 64.1318 0.984375C64.818 0.984375 65.4046 1.2002 65.8916 1.63184C66.3896 2.05241 66.6387 2.57259 66.6387 3.19238C66.6387 3.81217 66.3896 4.33789 65.8916 4.76953C65.4046 5.1901 64.818 5.40039 64.1318 5.40039C63.4567 5.40039 62.8701 5.1901 62.3721 4.76953C61.874 4.33789 61.625 3.81217 61.625 3.19238ZM72.9307 6.82812H77.6787L83.0742 23.6455L88.4697 6.82812H93.2178L85 31H81.1484L72.9307 6.82812ZM70.042 6.82812H74.9561L75.8691 25.3555V31H70.042V6.82812ZM91.1924 6.82812H96.123V31H90.2793V25.3555L91.1924 6.82812ZM109.388 19.0635H101.884L101.851 18.167H108.026C109.487 18.167 110.71 17.9788 111.695 17.6025C112.691 17.2262 113.438 16.6507 113.937 15.876C114.435 15.1012 114.684 14.1273 114.684 12.9541C114.684 11.792 114.418 10.8236 113.887 10.0488C113.367 9.27409 112.586 8.69303 111.546 8.30566C110.517 7.91829 109.233 7.72461 107.694 7.72461H102.232V31H101.336V6.82812H107.694C108.912 6.82812 110.007 6.94987 110.981 7.19336C111.955 7.43685 112.785 7.81315 113.472 8.32227C114.158 8.83138 114.684 9.47884 115.049 10.2646C115.414 11.0394 115.597 11.958 115.597 13.0205C115.597 14.0166 115.409 14.9131 115.032 15.71C114.667 16.5068 114.13 17.1543 113.422 17.6523C112.714 18.1504 111.839 18.4548 110.799 18.5654L109.388 19.0635ZM109.222 31H101.851L102.133 30.1035H109.222C110.583 30.1035 111.751 29.8766 112.725 29.4229C113.71 28.9691 114.468 28.3161 114.999 27.4639C115.53 26.6006 115.796 25.5713 115.796 24.376C115.796 23.4463 115.558 22.5775 115.082 21.7695C114.617 20.9616 113.909 20.3086 112.957 19.8105C112.005 19.3125 110.815 19.0635 109.388 19.0635H105.47L105.503 18.167H111.23L111.297 18.4824C112.315 18.6042 113.228 18.9417 114.036 19.4951C114.855 20.0485 115.503 20.7513 115.979 21.6035C116.454 22.4447 116.692 23.3577 116.692 24.3428C116.692 25.7705 116.371 26.9824 115.729 27.9785C115.099 28.9635 114.224 29.7161 113.106 30.2363C111.989 30.7454 110.694 31 109.222 31ZM126.155 6.82812V31H120.345V6.82812H126.155ZM140.101 6.82812L131.418 21.4375H125.143L124.445 16.1748H128.413L133.062 6.82812H140.101ZM134.058 31L128.396 20.4248L132.63 16.5234L140.931 31H134.058ZM147.887 22.085L156.569 6.82812H162.396V31H156.569V15.7598L147.887 31H142.06V6.82812H147.887V22.085ZM182.252 16.4238V20.9062H169.851V16.4238H182.252ZM171.793 6.82812V31H165.966V6.82812H171.793ZM186.17 6.82812V31H180.359V6.82812H186.17ZM210.325 18.4326V19.4121C210.325 21.2604 210.065 22.9206 209.545 24.3926C209.036 25.8535 208.311 27.1042 207.37 28.1445C206.429 29.1738 205.317 29.9652 204.033 30.5186C202.749 31.0609 201.333 31.332 199.783 31.332C198.223 31.332 196.795 31.0609 195.5 30.5186C194.216 29.9652 193.098 29.1738 192.146 28.1445C191.206 27.1042 190.475 25.8535 189.955 24.3926C189.446 22.9206 189.191 21.2604 189.191 19.4121V18.4326C189.191 16.5843 189.446 14.9242 189.955 13.4521C190.475 11.9801 191.2 10.7295 192.13 9.7002C193.071 8.65983 194.183 7.86849 195.467 7.32617C196.762 6.77279 198.189 6.49609 199.75 6.49609C201.299 6.49609 202.716 6.77279 204 7.32617C205.295 7.86849 206.413 8.65983 207.354 9.7002C208.294 10.7295 209.025 11.9801 209.545 13.4521C210.065 14.9242 210.325 16.5843 210.325 18.4326ZM204.415 19.4121V18.3994C204.415 17.2041 204.31 16.1527 204.1 15.2451C203.9 14.3265 203.602 13.5573 203.203 12.9375C202.805 12.3177 202.312 11.8529 201.726 11.543C201.15 11.222 200.492 11.0615 199.75 11.0615C198.975 11.0615 198.3 11.222 197.725 11.543C197.149 11.8529 196.668 12.3177 196.28 12.9375C195.893 13.5573 195.6 14.3265 195.4 15.2451C195.212 16.1527 195.118 17.2041 195.118 18.3994V19.4121C195.118 20.5964 195.212 21.6478 195.4 22.5664C195.6 23.474 195.893 24.2432 196.28 24.874C196.679 25.5049 197.166 25.9808 197.741 26.3018C198.328 26.6227 199.008 26.7832 199.783 26.7832C200.525 26.7832 201.183 26.6227 201.759 26.3018C202.334 25.9808 202.816 25.5049 203.203 24.874C203.602 24.2432 203.9 23.474 204.1 22.5664C204.31 21.6478 204.415 20.5964 204.415 19.4121Z" fill="white"/>
</svg>
