<svg width="215" height="9" viewBox="0 0 215 9" fill="none" xmlns="http://www.w3.org/2000/svg">
<path d="M3.31543 0.727539L0.961914 7.20703H0L2.70996 0.0976562H3.33008L3.31543 0.727539ZM5.28809 7.20703L2.92969 0.727539L2.91504 0.0976562H3.53516L6.25488 7.20703H5.28809ZM5.16602 4.5752V5.34668H1.17188V4.5752H5.16602ZM17.8955 6.44043V7.20703H12.5146V6.44043H17.8955ZM12.666 6.44043V8.95508H11.7334L11.7285 6.44043H12.666ZM18.7158 6.44043L18.7061 8.9502H17.7734V6.44043H18.7158ZM16.9727 0.0976562V0.869141H13.8574V0.0976562H16.9727ZM17.7832 0.0976562V7.20703H16.8457V0.0976562H17.7832ZM13.5352 0.0976562H14.4775L14.3311 2.95898C14.3115 3.38867 14.2708 3.78581 14.209 4.15039C14.1471 4.51172 14.0706 4.84212 13.9795 5.1416C13.8883 5.44108 13.7842 5.70964 13.667 5.94727C13.5498 6.18164 13.4245 6.38509 13.291 6.55762C13.1576 6.72689 13.0176 6.86686 12.8711 6.97754C12.7279 7.08496 12.583 7.16146 12.4365 7.20703H12.0068V6.44043H12.3096C12.3942 6.34928 12.4902 6.21745 12.5977 6.04492C12.7083 5.8724 12.8174 5.64941 12.9248 5.37598C13.0355 5.09928 13.1315 4.76237 13.2129 4.36523C13.2975 3.9681 13.3545 3.49935 13.3838 2.95898L13.5352 0.0976562ZM25.1221 0.0976562H26.0352L28.3643 5.89355L30.6885 0.0976562H31.6064L28.7158 7.20703H28.0029L25.1221 0.0976562ZM24.8242 0.0976562H25.6299L25.7617 4.43359V7.20703H24.8242V0.0976562ZM31.0938 0.0976562H31.8994V7.20703H30.9619V4.43359L31.0938 0.0976562ZM39.5361 5.57617L43.0371 0.0976562H43.9795V7.20703H43.0371V1.72363L39.5361 7.20703H38.5986V0.0976562H39.5361V5.57617ZM55.3369 3.1543V3.9209H51.4893V3.1543H55.3369ZM51.6357 0.0976562V7.20703H50.6934V0.0976562H51.6357ZM56.1572 0.0976562V7.20703H55.2197V0.0976562H56.1572ZM63.8135 5.57617L67.3145 0.0976562H68.2568V7.20703H67.3145V1.72363L63.8135 7.20703H62.876V0.0976562H63.8135V5.57617ZM79.2627 4.94629H80.2002C80.1514 5.39551 80.0228 5.79753 79.8145 6.15234C79.6061 6.50716 79.3115 6.78874 78.9307 6.99707C78.5498 7.20215 78.0745 7.30469 77.5049 7.30469C77.0882 7.30469 76.709 7.22656 76.3672 7.07031C76.0286 6.91406 75.7373 6.69271 75.4932 6.40625C75.249 6.11654 75.0602 5.76986 74.9268 5.36621C74.7965 4.95931 74.7314 4.50684 74.7314 4.00879V3.30078C74.7314 2.80273 74.7965 2.35189 74.9268 1.94824C75.0602 1.54134 75.2507 1.19303 75.498 0.90332C75.7487 0.613607 76.0498 0.390625 76.4014 0.234375C76.7529 0.078125 77.1484 0 77.5879 0C78.125 0 78.5791 0.100911 78.9502 0.302734C79.3213 0.504557 79.6094 0.784505 79.8145 1.14258C80.0228 1.4974 80.1514 1.90918 80.2002 2.37793H79.2627C79.2171 2.0459 79.1325 1.76107 79.0088 1.52344C78.8851 1.28255 78.7093 1.09701 78.4814 0.966797C78.2536 0.836589 77.9557 0.771484 77.5879 0.771484C77.2721 0.771484 76.9938 0.831706 76.7529 0.952148C76.5153 1.07259 76.3151 1.24349 76.1523 1.46484C75.9928 1.6862 75.8724 1.9515 75.791 2.26074C75.7096 2.56999 75.6689 2.91341 75.6689 3.29102V4.00879C75.6689 4.3571 75.7048 4.68424 75.7764 4.99023C75.8512 5.29622 75.9635 5.56478 76.1133 5.7959C76.263 6.02702 76.4535 6.20931 76.6846 6.34277C76.9157 6.47298 77.1891 6.53809 77.5049 6.53809C77.9053 6.53809 78.2243 6.47461 78.4619 6.34766C78.6995 6.2207 78.8786 6.03841 78.999 5.80078C79.1227 5.56315 79.2106 5.27832 79.2627 4.94629ZM88.9648 0.0976562V7.20703H88.0371V0.0976562H88.9648ZM91.25 0.0976562V0.869141H85.7568V0.0976562H91.25ZM99.9268 4.41895H98.0273V3.65234H99.9268C100.295 3.65234 100.592 3.59375 100.82 3.47656C101.048 3.35938 101.214 3.19661 101.318 2.98828C101.426 2.77995 101.479 2.54232 101.479 2.27539C101.479 2.03125 101.426 1.80176 101.318 1.58691C101.214 1.37207 101.048 1.19954 100.82 1.06934C100.592 0.935872 100.295 0.869141 99.9268 0.869141H98.2471V7.20703H97.3047V0.0976562H99.9268C100.464 0.0976562 100.918 0.19043 101.289 0.375977C101.66 0.561523 101.942 0.818685 102.134 1.14746C102.326 1.47298 102.422 1.8457 102.422 2.26562C102.422 2.72135 102.326 3.11035 102.134 3.43262C101.942 3.75488 101.66 4.00065 101.289 4.16992C100.918 4.33594 100.464 4.41895 99.9268 4.41895ZM110.571 0.727539L108.218 7.20703H107.256L109.966 0.0976562H110.586L110.571 0.727539ZM112.544 7.20703L110.186 0.727539L110.171 0.0976562H110.791L113.511 7.20703H112.544ZM112.422 4.5752V5.34668H108.428V4.5752H112.422ZM121.455 0.0976562V7.20703H120.527V0.0976562H121.455ZM123.74 0.0976562V0.869141H118.247V0.0976562H123.74ZM135.132 3.42773V3.87695C135.132 4.41081 135.065 4.88932 134.932 5.3125C134.798 5.73568 134.606 6.09538 134.355 6.3916C134.105 6.68783 133.804 6.91406 133.452 7.07031C133.104 7.22656 132.713 7.30469 132.28 7.30469C131.86 7.30469 131.475 7.22656 131.123 7.07031C130.775 6.91406 130.472 6.68783 130.215 6.3916C129.961 6.09538 129.764 5.73568 129.624 5.3125C129.484 4.88932 129.414 4.41081 129.414 3.87695V3.42773C129.414 2.89388 129.482 2.41699 129.619 1.99707C129.759 1.57389 129.956 1.21419 130.21 0.917969C130.464 0.61849 130.765 0.390625 131.113 0.234375C131.465 0.078125 131.851 0 132.271 0C132.703 0 133.094 0.078125 133.442 0.234375C133.794 0.390625 134.095 0.61849 134.346 0.917969C134.6 1.21419 134.793 1.57389 134.927 1.99707C135.063 2.41699 135.132 2.89388 135.132 3.42773ZM134.199 3.87695V3.41797C134.199 2.99479 134.155 2.62044 134.067 2.29492C133.983 1.9694 133.857 1.69596 133.691 1.47461C133.525 1.25326 133.322 1.08561 133.081 0.97168C132.843 0.857747 132.573 0.800781 132.271 0.800781C131.978 0.800781 131.712 0.857747 131.475 0.97168C131.24 1.08561 131.038 1.25326 130.869 1.47461C130.703 1.69596 130.575 1.9694 130.483 2.29492C130.392 2.62044 130.347 2.99479 130.347 3.41797V3.87695C130.347 4.30339 130.392 4.68099 130.483 5.00977C130.575 5.33529 130.705 5.61035 130.874 5.83496C131.047 6.05632 131.25 6.22396 131.484 6.33789C131.722 6.45182 131.987 6.50879 132.28 6.50879C132.586 6.50879 132.858 6.45182 133.096 6.33789C133.333 6.22396 133.534 6.05632 133.696 5.83496C133.862 5.61035 133.988 5.33529 134.072 5.00977C134.157 4.68099 134.199 4.30339 134.199 3.87695ZM144.165 4.41895H142.266V3.65234H144.165C144.533 3.65234 144.831 3.59375 145.059 3.47656C145.286 3.35938 145.452 3.19661 145.557 2.98828C145.664 2.77995 145.718 2.54232 145.718 2.27539C145.718 2.03125 145.664 1.80176 145.557 1.58691C145.452 1.37207 145.286 1.19954 145.059 1.06934C144.831 0.935872 144.533 0.869141 144.165 0.869141H142.485V7.20703H141.543V0.0976562H144.165C144.702 0.0976562 145.156 0.19043 145.527 0.375977C145.898 0.561523 146.18 0.818685 146.372 1.14746C146.564 1.47298 146.66 1.8457 146.66 2.26562C146.66 2.72135 146.564 3.11035 146.372 3.43262C146.18 3.75488 145.898 4.00065 145.527 4.16992C145.156 4.33594 144.702 4.41895 144.165 4.41895ZM155.474 4.41895H153.574V3.65234H155.474C155.841 3.65234 156.139 3.59375 156.367 3.47656C156.595 3.35938 156.761 3.19661 156.865 2.98828C156.973 2.77995 157.026 2.54232 157.026 2.27539C157.026 2.03125 156.973 1.80176 156.865 1.58691C156.761 1.37207 156.595 1.19954 156.367 1.06934C156.139 0.935872 155.841 0.869141 155.474 0.869141H153.794V7.20703H152.852V0.0976562H155.474C156.011 0.0976562 156.465 0.19043 156.836 0.375977C157.207 0.561523 157.489 0.818685 157.681 1.14746C157.873 1.47298 157.969 1.8457 157.969 2.26562C157.969 2.72135 157.873 3.11035 157.681 3.43262C157.489 3.75488 157.207 4.00065 156.836 4.16992C156.465 4.33594 156.011 4.41895 155.474 4.41895ZM166.782 4.41895H164.883V3.65234H166.782C167.15 3.65234 167.448 3.59375 167.676 3.47656C167.904 3.35938 168.07 3.19661 168.174 2.98828C168.281 2.77995 168.335 2.54232 168.335 2.27539C168.335 2.03125 168.281 1.80176 168.174 1.58691C168.07 1.37207 167.904 1.19954 167.676 1.06934C167.448 0.935872 167.15 0.869141 166.782 0.869141H165.103V7.20703H164.16V0.0976562H166.782C167.319 0.0976562 167.773 0.19043 168.145 0.375977C168.516 0.561523 168.797 0.818685 168.989 1.14746C169.181 1.47298 169.277 1.8457 169.277 2.26562C169.277 2.72135 169.181 3.11035 168.989 3.43262C168.797 3.75488 168.516 4.00065 168.145 4.16992C167.773 4.33594 167.319 4.41895 166.782 4.41895ZM179.761 4.94629H180.698C180.649 5.39551 180.521 5.79753 180.312 6.15234C180.104 6.50716 179.81 6.78874 179.429 6.99707C179.048 7.20215 178.573 7.30469 178.003 7.30469C177.586 7.30469 177.207 7.22656 176.865 7.07031C176.527 6.91406 176.235 6.69271 175.991 6.40625C175.747 6.11654 175.558 5.76986 175.425 5.36621C175.295 4.95931 175.229 4.50684 175.229 4.00879V3.30078C175.229 2.80273 175.295 2.35189 175.425 1.94824C175.558 1.54134 175.749 1.19303 175.996 0.90332C176.247 0.613607 176.548 0.390625 176.899 0.234375C177.251 0.078125 177.646 0 178.086 0C178.623 0 179.077 0.100911 179.448 0.302734C179.819 0.504557 180.107 0.784505 180.312 1.14258C180.521 1.4974 180.649 1.90918 180.698 2.37793H179.761C179.715 2.0459 179.631 1.76107 179.507 1.52344C179.383 1.28255 179.207 1.09701 178.979 0.966797C178.752 0.836589 178.454 0.771484 178.086 0.771484C177.77 0.771484 177.492 0.831706 177.251 0.952148C177.013 1.07259 176.813 1.24349 176.65 1.46484C176.491 1.6862 176.37 1.9515 176.289 2.26074C176.208 2.56999 176.167 2.91341 176.167 3.29102V4.00879C176.167 4.3571 176.203 4.68424 176.274 4.99023C176.349 5.29622 176.462 5.56478 176.611 5.7959C176.761 6.02702 176.951 6.20931 177.183 6.34277C177.414 6.47298 177.687 6.53809 178.003 6.53809C178.403 6.53809 178.722 6.47461 178.96 6.34766C179.198 6.2207 179.377 6.03841 179.497 5.80078C179.621 5.56315 179.709 5.27832 179.761 4.94629ZM187.969 0.0976562V7.20703H187.026V0.0976562H187.969ZM192.349 0.0976562L189.263 4.00879H187.593L187.446 3.22754H188.701L191.182 0.0976562H192.349ZM191.401 7.20703L188.73 3.88672L189.258 3.06152L192.554 7.20703H191.401ZM201.04 0.727539L198.687 7.20703H197.725L200.435 0.0976562H201.055L201.04 0.727539ZM203.013 7.20703L200.654 0.727539L200.64 0.0976562H201.26L203.979 7.20703H203.013ZM202.891 4.5752V5.34668H198.896V4.5752H202.891ZM213.877 4.43848H211.88L211.416 4.24805C210.902 4.08529 210.506 3.83626 210.229 3.50098C209.953 3.16243 209.814 2.74251 209.814 2.24121C209.814 1.78223 209.915 1.39323 210.117 1.07422C210.322 0.755208 210.612 0.512695 210.986 0.34668C211.364 0.180664 211.81 0.0976562 212.324 0.0976562H214.6V7.20703H213.657V0.869141H212.324C211.803 0.869141 211.411 0.992839 211.147 1.24023C210.887 1.48763 210.757 1.82129 210.757 2.24121C210.757 2.51465 210.814 2.75879 210.928 2.97363C211.045 3.18848 211.217 3.35775 211.445 3.48145C211.673 3.60514 211.956 3.66699 212.295 3.66699H213.882L213.877 4.43848ZM212.275 3.9502L210.547 7.20703H209.546L211.323 3.9502H212.275Z" fill="white"/>
</svg>
